Coordinates
version=1
nRows=16
nColumns=36
inDegrees=yes

Units are S.I. units (second, meters, Newtons, ...)
If the header above contains a line with 'inDegrees', this indicates whether rotational values are in degrees (yes) or radians (no).

endheader
time	pelvis_tilt	pelvis_list	pelvis_rotation	pelvis_tx	pelvis_ty	pelvis_tz	hip_flexion_r	hip_adduction_r	hip_rotation_r	knee_angle_r	knee_angle_r_beta	ankle_angle_r	subtalar_angle_r	mtp_angle_r	hip_flexion_l	hip_adduction_l	hip_rotation_l	knee_angle_l	knee_angle_l_beta	ankle_angle_l	subtalar_angle_l	mtp_angle_l	lumbar_extension	lumbar_bending	lumbar_rotation	arm_flex_r	arm_add_r	arm_rot_r	elbow_flex_r	pro_sup_r	arm_flex_l	arm_add_l	arm_rot_l	elbow_flex_l	pro_sup_l
      4.26250000	     -1.33143002	      2.74988433	      6.07254176	      0.39472412	      0.99514903	     -0.08622374	     27.68743756	    -12.71628335	      4.66063698	     60.12442276	      1.04936914	     -3.79746162	     -7.30705195	     -7.49999987	      0.88986520	     -0.31434026	      8.12056844	     11.96976168	      0.20891175	     12.95755067	     -6.82083527	     -7.49999987	     -6.66396027	     -1.75804996	      3.96671552	     63.07333747	    -15.02760277	     28.91619561	    133.05506858	     99.20324395	     59.56372793	    -17.81160421	   -339.54572121	    137.43624905	     89.15630050
      4.26666670	     -1.15701135	      2.71021647	      6.33428470	      0.39481782	      0.99699922	     -0.08607679	     27.51003881	    -12.66110854	      5.04750779	     59.90301767	      1.04550489	     -3.45236950	     -6.95637410	     -7.49999987	      0.68528728	     -0.37870417	      8.37381395	     11.92469145	      0.20812513	     13.04466187	     -6.47959092	     -7.49999987	     -6.77727554	     -1.67898532	      3.97321700	     63.06894320	    -15.04724621	     28.86186665	    133.35186841	     97.45843166	     59.67015899	    -17.79772220	   -339.46320204	    137.55089704	     87.81840140
      4.27083330	     -1.11272510	      2.69271247	      6.59011457	      0.39719622	      0.99426567	     -0.08477741	     27.50295201	    -12.59162631	      5.51504303	     59.82241084	      1.04409804	     -3.39054563	     -6.85421429	     -7.49999987	      0.62421980	     -0.45551277	      8.56595007	     11.99886810	      0.20941975	     13.04268286	     -6.37145180	     -7.49999987	     -6.66246754	     -1.65989330	      3.97266503	     63.05147543	    -15.06438720	     28.80960144	    133.42233417	     97.50255104	     59.68540519	    -17.88443644	   -339.48962262	    137.59782121	     87.86073052
      4.27500000	     -1.22886852	      2.63913199	      6.77810714	      0.39695125	      0.99588857	     -0.08512545	     27.82595868	    -12.47681128	      6.03265556	     59.64958585	      1.04108167	     -3.21248394	     -6.58147937	     -7.49999987	      0.75621419	     -0.53250359	      8.59802956	     12.06292224	      0.21053771	     13.13343661	     -6.14165585	     -7.49999987	     -6.45378072	     -1.53764913	      3.79915247	     62.94385138	    -14.66577968	     28.64323174	    133.60440379	    100.35496887	     59.36368528	    -18.18397712	   -340.05872065	    138.11390327	     90.19305720
      4.27916670	     -1.15469313	      2.61568531	      6.97887112	      0.39825697	      0.99617151	     -0.08473964	     27.90662003	    -12.33647343	      6.56537045	     59.51301855	      1.03869812	     -3.15094236	     -6.41676974	     -7.49999987	      0.64893220	     -0.61575006	      8.68457647	     12.05914186	      0.21047173	     13.07265004	     -6.13657602	     -7.49999987	     -6.47250595	     -1.52000411	      3.77002550	     62.79550394	    -14.59646963	     28.54168156	    133.85028572	    100.19274470	     59.34509489	    -18.28837209	   -340.16201766	    138.28826526	     90.37762029
      4.28333330	     -1.09381140	      2.56919290	      7.16751867	      0.39905097	      0.99687652	     -0.08446797	     27.90543243	    -12.19598417	      7.05821384	     59.23144349	      1.03378371	     -2.98719308	     -6.46272203	     -7.49999987	      0.52861265	     -0.71819339	      8.81619492	     11.98855401	      0.20923974	     13.02025747	     -6.13629304	     -7.49999987	     -6.50485204	     -1.46402025	      3.77026692	     62.63993117	    -14.56675707	     28.40887787	    134.07527027	     99.85558111	     59.28971323	    -18.35319893	   -340.18535900	    138.52088066	     90.24062408
      4.28750000	     -1.10706082	      2.56026805	      7.40797591	      0.40019508	      0.99644083	     -0.08344654	     27.95127217	    -12.08034044	      7.68165282	     58.95155197	      1.02889868	     -2.69951152	     -6.50999087	     -7.49999987	      0.53370957	     -0.78405868	      8.97203361	     12.03480658	      0.21004700	     12.99819579	     -6.10494548	     -7.49999987	     -6.45086348	     -1.51192950	      3.79851716	     62.40012977	    -14.56273646	     28.10523088	    134.41658115	     99.55112182	     59.27041409	    -18.34513609	   -340.09328850	    138.57913908	     89.81841349
      4.29166670	     -1.02940574	      2.56496823	      7.61362792	      0.40131141	      0.99574255	     -0.08274822	     27.87110723	    -11.96744541	      8.16359439	     58.74034028	      1.02521234	     -2.43613972	     -6.58727042	     -7.49999987	      0.36812034	     -0.86005698	      9.16235216	     11.95611882	      0.20867364	     13.02519500	     -5.99115868	     -7.49999987	     -6.48661929	     -1.48107620	      3.77263147	     62.41113153	    -14.47669986	     28.00896652	    134.51260455	     98.50338014	     59.29389179	    -18.46715399	   -340.23291353	    138.72130781	     89.11230456
      4.29583330	     -1.17162157	      2.55434620	      7.76963663	      0.40207838	      0.99525826	     -0.08153849	     28.03967561	    -11.80850617	      8.68393644	     58.47159215	      1.02052180	     -1.99533122	     -6.51378555	     -7.49999987	      0.52218355	     -0.92977608	      9.26466205	     12.03005194	      0.20996402	     13.11557651	     -5.89568556	     -7.49999987	     -6.29951926	     -1.56894782	      3.81544388	     62.34110122	    -14.36540090	     27.73529548	    134.79759107	     98.21422863	     59.43093734	    -18.62224625	   -340.25494183	    138.91744521	     88.77640028
      4.30000000	     -1.23428238	      2.53152734	      7.95887801	      0.40395927	      0.99512681	     -0.08168073	     28.00732037	    -11.71155617	      9.12593104	     58.17674275	      1.01537571	     -1.67984491	     -6.47938254	     -7.49999987	      0.53077354	     -1.00033413	      9.45588731	     12.02407643	      0.20985972	     13.21167532	     -5.82266928	     -7.49999987	     -6.11645223	     -1.43402520	      3.58032868	     62.33603834	    -14.04053396	     27.78818722	    134.71434313	     99.95809854	     59.10533263	    -19.01731997	   -340.93271092	    139.40238708	     90.12132497
      4.30416670	     -1.26473387	      2.50147434	      8.15284874	      0.40509574	      0.99557815	     -0.08201252	     27.89136439	    -11.65288741	      9.65300480	     57.69047379	      1.00688871	     -1.42147434	     -5.96443423	     -7.49999987	      0.50380356	     -1.08905584	      9.61951981	     12.06068559	      0.21049867	     13.29469345	     -5.75338456	     -7.49999987	     -6.00275642	     -1.36681704	      3.51013944	     62.24866740	    -14.01914608	     27.75555607	    134.98235352	    100.02015277	     58.94264219	    -19.16607773	   -341.13879440	    139.70302295	     90.15908392
      4.30833330	     -1.26695256	      2.52625458	      8.33217695	      0.40622891	      0.99525797	     -0.08127933	     27.80746356	    -11.62184567	     10.20176925	     57.24018992	      0.99902978	     -1.45633858	     -5.73423011	     -7.49999987	      0.46844141	     -1.12450412	      9.77143014	     12.11807785	      0.21150036	     13.29052823	     -5.77312972	     -7.49999987	     -5.89099236	     -1.39044485	      3.60852519	     62.09584914	    -14.12175174	     27.51358935	    135.27547994	     99.51578974	     58.86793212	    -19.24347827	   -341.04874819	    139.89695081	     89.74736739
      4.31250000	     -1.25576475	      2.60793155	      8.56654687	      0.40747609	      0.99335364	     -0.07992440	     27.83853455	    -11.65521712	     10.69923778	     56.88062336	      0.99275416	     -1.46769494	     -5.68977686	     -7.49999987	      0.42489253	     -1.12720905	      9.92247863	     12.15155310	      0.21208461	     13.35093745	     -5.74457197	     -7.49999987	     -5.78670840	     -1.45507348	      3.63398505	     62.18590619	    -14.11311904	     27.49813801	    135.28681205	     99.51559404	     58.91057009	    -19.29729487	   -341.07750847	    139.91840383	     89.75739255
      4.31666670	     -1.22400570	      2.61841819	      8.76073936	      0.40847641	      0.99471541	     -0.07798430	     27.77036570	    -11.52738743	     11.36619764	     56.35116865	      0.98351343	     -1.64254659	     -5.63810673	     -7.49999987	      0.33895193	     -1.25825401	     10.21017155	     12.10398228	      0.21125434	     13.46077956	     -5.66298671	     -7.49999987	     -5.81295656	     -1.38485056	      3.46242443	     62.48340933	    -13.80164573	     27.81325587	    135.16704282	     98.97995545	     58.70920826	    -19.83783770	   -341.48021776	    140.36791198	     89.52408511
      4.32083330	     -1.23844722	      2.64114888	      9.00879973	      0.40882950	      0.99392095	     -0.07708464	     27.74105149	    -11.45831701	     11.88722108	     55.84842067	      0.97473882	     -1.79310985	     -5.42949330	     -7.49999987	      0.42449300	     -1.33857442	     10.29680113	     12.23508573	      0.21354253	     13.57232221	     -5.51042930	     -7.49999987	     -5.76874913	     -1.39835853	      3.42073188	     62.55735127	    -13.72856594	     27.87254148	    135.19039181	     97.93183430	     58.58362822	    -20.08795211	   -341.61272272	    140.58158596	     88.98510831
      4.32500000	     -1.27715074	      2.60549123	      9.29583714	      0.40964933	      0.99477891	     -0.07757615	     27.63218440	    -11.38989877	     12.42497497	     55.16568780	      0.96282289	     -1.90709522	     -4.83641593	     -7.49999987	      0.52055572	     -1.44505838	     10.35769711	     12.25905308	      0.21396084	     13.64397609	     -5.27057289	     -7.49999987	     -5.69286927	     -1.32728405	      3.30025707	     62.58170776	    -13.70653168	     27.96257577	    135.21567305	     97.46117747	     58.29472786	    -20.09751080	   -341.82153052	    140.76019798	     88.59771104
